<svg width="34" height="32" viewBox="0 0 34 32" fill="none" xmlns="http://www.w3.org/2000/svg">
<g clip-path="url(#clip0_180_1213)">
<path d="M31.1525 16.6838C31.5041 16.8445 31.9194 16.6896 32.0801 16.338C32.2408 15.9864 32.086 15.5711 31.7343 15.4104L31.1525 16.6838ZM22.7578 9.36571L23.2967 8.91883L23.2932 8.91475L22.7578 9.36571ZM18.4788 0.355351C18.364 -0.013807 17.9716 -0.219997 17.6025 -0.105188C17.2333 0.00962198 17.0271 0.401955 17.1419 0.771114L18.4788 0.355351ZM31.7343 15.4104C29.7091 14.485 26.2884 12.5262 23.2966 8.91885L22.219 9.81256C25.3842 13.629 28.9999 15.7002 31.1525 16.6838L31.7343 15.4104ZM23.2932 8.91475C20.5039 5.60317 19.1153 2.4019 18.4788 0.355351L17.1419 0.771114C17.8248 2.96673 19.2947 6.34079 22.2225 9.81666L23.2932 8.91475Z" fill="#181921"/>
<path d="M31.718 16.691C32.0736 16.5394 32.239 16.1281 32.0873 15.7725C31.9356 15.4169 31.5244 15.2516 31.1688 15.4032L31.718 16.691ZM22.7578 22.2831L23.2775 22.7521L23.2811 22.7481L22.7578 22.2831ZM17.1463 30.2774C17.024 30.6442 17.2223 31.0406 17.5891 31.1628C17.9558 31.285 18.3522 31.0868 18.4745 30.72L17.1463 30.2774ZM31.1688 15.4032C29.0198 16.3197 25.4031 18.2523 22.2346 21.8181L23.2811 22.7481C26.2694 19.385 29.6891 17.5563 31.718 16.691L31.1688 15.4032ZM22.2382 21.8141C19.3065 25.0626 17.8322 28.2188 17.1463 30.2774L18.4745 30.72C19.1078 28.8193 20.4921 25.8386 23.2775 22.7521L22.2382 21.8141Z" fill="#181921"/>
<path d="M30.4116 16L2.09685 16" stroke="#181921" stroke-width="1.4" stroke-linecap="round"/>
</g>
<defs>
<clipPath id="clip0_180_1213">
<rect width="33.0339" height="32" fill="white"/>
</clipPath>
</defs>
</svg>
