<svg width="17" height="16" viewBox="0 0 17 16" fill="none" xmlns="http://www.w3.org/2000/svg">
<path fill-rule="evenodd" clip-rule="evenodd" d="M4 5.20001H5.8C6.79411 5.20001 7.6 6.0059 7.6 7.00001C7.6 7.51816 7.38107 7.98517 7.03066 8.31359C7.71371 8.56914 8.2 9.22779 8.2 10C8.2 10.9941 7.39411 11.8 6.4 11.8H4V5.20001ZM4.6 8.80001V11.2H6.4C7.06274 11.2 7.6 10.6628 7.6 10C7.6 9.33727 7.06274 8.80001 6.4 8.80001H4.6ZM4.6 8.20001H5.8C6.46274 8.20001 7 7.66275 7 7.00001C7 6.33727 6.46274 5.80001 5.8 5.80001H4.6V8.20001ZM12.4 6.40001H9.4V5.80001H12.4V6.40001ZM8.8 9.70001C8.8 8.54021 9.7402 7.60001 10.9 7.60001C12.0598 7.60001 13 8.54021 13 9.70001V10H9.43001C9.56899 10.6847 10.1743 11.2 10.9 11.2C11.4001 11.2 11.843 10.9556 12.1161 10.5784L12.6021 10.9302C12.2211 11.4566 11.6006 11.8 10.9 11.8C9.7402 11.8 8.8 10.8598 8.8 9.70001ZM9.43001 9.40001H12.37C12.231 8.71534 11.6257 8.20001 10.9 8.20001C10.1743 8.20001 9.56899 8.71534 9.43001 9.40001Z" fill="#FAF1F1" stroke="#FAF1F1" stroke-width="0.25"/>
<path d="M4.5 0.5H12.5C14.433 0.5 16 2.067 16 4V12C16 13.933 14.433 15.5 12.5 15.5H4.5C2.567 15.5 1 13.933 1 12V4C1 2.067 2.567 0.5 4.5 0.5Z" stroke="#FAF1F1"/>
</svg>
